<svg xmlns="http://www.w3.org/2000/svg" viewBox="0 0 1280 640" role="img" aria-labelledby="title desc">
  <title id="title">CyberCore social preview</title>
  <desc id="desc">CyberCore v0.1 foundation release social preview image.</desc>
  <defs>
    <linearGradient id="bg" x1="0" y1="0" x2="1280" y2="640" gradientUnits="userSpaceOnUse">
      <stop offset="0" stop-color="#07111f"/>
      <stop offset="0.58" stop-color="#0b1830"/>
      <stop offset="1" stop-color="#16122f"/>
    </linearGradient>
    <linearGradient id="mark-gradient" x1="410" y1="142" x2="590" y2="322" gradientUnits="userSpaceOnUse">
      <stop offset="0" stop-color="#16f2d2"/>
      <stop offset="0.52" stop-color="#5f7cff"/>
      <stop offset="1" stop-color="#ff4fd8"/>
    </linearGradient>
  </defs>
  <rect width="1280" height="640" fill="url(#bg)"/>
  <path d="M88 500h1096" stroke="#25395f" stroke-width="2"/>
  <path d="M88 140h1096" stroke="#25395f" stroke-width="2"/>
  <path d="M964 140v360M1048 140v360M1132 140v360" stroke="#152844" stroke-width="2"/>
  <g transform="translate(112 144)">
    <path d="M120 0 226 60v120l-106 60-106-60V60z" fill="#0e1b2e" stroke="#25395f" stroke-width="10"/>
    <path d="M120 28 202 75v90l-82 47-82-47V75z" fill="none" stroke="url(#mark-gradient)" stroke-width="10" stroke-linejoin="round"/>
    <circle cx="120" cy="120" r="42" fill="#101f34" stroke="#16f2d2" stroke-width="10"/>
    <path d="M120 58v62l54 32M66 152l54-32" fill="none" stroke="#d7f8ff" stroke-width="10" stroke-linecap="round" stroke-linejoin="round"/>
    <circle cx="120" cy="58" r="15" fill="#16f2d2"/>
    <circle cx="66" cy="152" r="15" fill="#ff4fd8"/>
    <circle cx="174" cy="152" r="15" fill="#5f7cff"/>
    <circle cx="120" cy="120" r="15" fill="#f7fbff"/>
  </g>
  <g transform="translate(410 178)">
    <text x="0" y="78" fill="#f7fbff" font-family="Inter, ui-sans-serif, system-ui, -apple-system, BlinkMacSystemFont, Segoe UI, sans-serif" font-size="86" font-weight="850">CyberCore</text>
    <text x="4" y="142" fill="#16f2d2" font-family="Inter, ui-sans-serif, system-ui, -apple-system, BlinkMacSystemFont, Segoe UI, sans-serif" font-size="34" font-weight="700">Foundation Release v0.1</text>
    <text x="4" y="204" fill="#c7d7ee" font-family="Inter, ui-sans-serif, system-ui, -apple-system, BlinkMacSystemFont, Segoe UI, sans-serif" font-size="32" font-weight="500">Infrastructure Context &amp; Intelligence Platform</text>
    <text x="4" y="254" fill="#93a9c9" font-family="Inter, ui-sans-serif, system-ui, -apple-system, BlinkMacSystemFont, Segoe UI, sans-serif" font-size="24" font-weight="500">Reality -> Evidence -> Knowledge -> Confidence -> Controlled Automation</text>
  </g>
  <g fill="none" stroke-linecap="round" stroke-width="8">
    <path d="M944 420h148" stroke="#16f2d2"/>
    <path d="M1008 372h164" stroke="#5f7cff"/>
    <path d="M884 468h252" stroke="#ff4fd8"/>
  </g>
</svg>
